<svg xmlns="http://www.w3.org/2000/svg" width="400" height="130" stroke="#000" stroke-linecap="round" stroke-linejoin="round" fill="#fff" fill-rule="evenodd"><path d="M-.5-.5H402v130H-.5zM178.1 84q-5.1 0-9.15-1.5-4.05-1.5-6.9-4.3-2.85-2.8-4.4-6.8-1.55-4-1.55-8.9v-31q0-4.9 1.55-8.9 1.55-4 4.4-6.8 2.85-2.8 6.9-4.3Q173 10 178.1 10q9.4 0 15.15 5.15Q199 20.3 200.1 29.5h-9q-.6-5.4-4.05-8.45Q183.6 18 178.1 18q-6 0-9.5 3.6-3.5 3.6-3.5 9.9v31q0 6.3 3.45 9.9Q172 76 178.1 76q5.5 0 8.95-3.05 3.45-3.05 4.05-8.45h9q-1.1 9.2-6.85 14.35Q187.5 84 178.1 84zm36.4-19.5h9.5q0 5.2 3.75 8.35Q231.5 76 237.7 76q6.4 0 10-2.95 3.6-2.95 3.6-8.05 0-4.4-2.6-7.75-2.6-3.35-7.1-4.95l-8.5-3q-16.4-5.9-16.4-20.3 0-8.8 5.7-13.9Q228.1 10 238 10q4.8 0 8.75 1.35 3.95 1.35 6.8 3.85 2.85 2.5 4.4 6.05 1.55 3.55 1.65 7.85h-9.5q0-5.1-3.35-8.1-3.35-3-8.85-3-5.6 0-8.9 2.75-3.3 2.75-3.3 7.45 0 4.4 2.4 7.3 2.4 2.9 7.8 4.9l8.9 3.2q7.6 2.7 11.65 8.15 4.05 5.45 4.05 12.95 0 9-6.15 14.15Q248.2 84 237.5 84q-5.1 0-9.3-1.4-4.2-1.4-7.2-3.95-3-2.55-4.7-6.15-1.7-3.6-1.8-8zm60 0h9.5q0 5.2 3.75 8.35Q291.5 76 297.7 76q6.4 0 10-2.95 3.6-2.95 3.6-8.05 0-4.4-2.6-7.75-2.6-3.35-7.1-4.95l-8.5-3q-16.4-5.9-16.4-20.3 0-8.8 5.7-13.9Q288.1 10 298 10q4.8 0 8.75 1.35 3.95 1.35 6.8 3.85 2.85 2.5 4.4 6.05 1.55 3.55 1.65 7.85h-9.5q0-5.1-3.35-8.1-3.35-3-8.85-3-5.6 0-8.9 2.75-3.3 2.75-3.3 7.45 0 4.4 2.4 7.3 2.4 2.9 7.8 4.9l8.9 3.2q7.6 2.7 11.65 8.15 4.05 5.45 4.05 12.95 0 9-6.15 14.15Q308.2 84 297.5 84q-5.1 0-9.3-1.4-4.2-1.4-7.2-3.95-3-2.55-4.7-6.15-1.7-3.6-1.8-8zm-107.54 47.92h-10.84V94.06h10.84v2.09h-8.54v5.76h7.65V104h-7.65v6.32h8.54zm4.72-18.36h2.29v16.26h8.67v2.1h-10.96zm25.88 18.36h-10.84V94.06h10.84v2.09h-8.54v5.76h7.65V104h-7.65v6.32h8.54zm10.33.25q-1.79 0-2.82-.38-1.03-.38-1.76-1.1-.73-.71-1.12-1.73-.4-1.02-.4-2.27v-7.91q0-1.25.4-2.27.39-1.02 1.12-1.73.73-.71 1.76-1.1 1.03-.38 2.33-.38 2.4 0 3.87 1.31 1.46 1.32 1.74 3.66h-2.29q-.15-1.37-1.03-2.15-.88-.78-2.29-.78-1.53 0-2.42.92-.89.92-.89 2.52v7.91q0 1.6.88 2.52.88.92 2.43.92 1.41 0 2.29-.78.88-.78 1.03-2.15h2.29q-.28 2.34-1.74 3.66-1.47 1.31-3.38 1.31zm13.49-16.6h-5.33v-2.01h13v2.01h-5.33v16.35h-2.34zm11.12 16.35V94.06h5.86q1.25 0 2.27.38 1.02.38 1.75 1.09.72.72 1.12 1.7.39.98.39 2.18 0 1.91-.98 3.25-.98 1.34-2.66 1.85l3.9 7.91h-2.7l-3.57-7.65h-3.09v7.65zm20.65.25q-1.3 0-2.33-.38-1.04-.38-1.76-1.1-.73-.71-1.12-1.73-.4-1.02-.4-2.27v-7.91q0-1.25.4-2.27.39-1.02 1.12-1.73.72-.71 1.76-1.1 1.03-.38 2.33-.38 1.3 0 2.33.38 1.04.39 1.76 1.1.73.71 1.12 1.73.4 1.02.4 2.27v7.91q0 1.25-.4 2.25-.39 1.01-1.12 1.73-.72.71-1.77 1.1-1.04.4-2.32.4zm18.62-2.8q0 0 0 0zm6.75.53h4.06V96.07h-4.06v-2.01h10.46v2.01h-4.06v14.33h4.06v2.02h-10.46zm21.17 2.27q-1.79 0-2.82-.38-1.03-.38-1.76-1.1-.73-.71-1.12-1.73-.4-1.02-.4-2.27v-7.91q0-1.25.4-2.27.39-1.02 1.12-1.73.73-.71 1.76-1.1 1.03-.38 2.33-.38 2.4 0 3.87 1.31 1.46 1.32 1.74 3.66h-2.29q-.15-1.37-1.03-2.15-.88-.78-2.29-.78-1.53 0-2.42.92-.89.92-.89 2.52v7.91q0 1.6.88 2.52.88.92 2.43.92 1.41 0 2.29-.78.88-.78 1.03-2.15h2.29q-.28 2.34-1.74 3.66-1.47 1.31-3.38 1.31zm8.8-4.97h2.42q0 1.32.95 2.13.96.8 2.54.8 1.63 0 2.55-.75.92-.75.92-2.05 0-1.13-.66-1.98-.67-.86-1.81-1.26l-2.17-.77q-4.18-1.5-4.18-5.17 0-2.25 1.45-3.55 1.45-1.3 3.98-1.3 1.22 0 2.23.34 1.01.35 1.73.99.73.63 1.12 1.54.4.9.43 2h-2.43q0-1.3-.85-2.06-.86-.77-2.26-.77-1.43 0-2.27.7-.84.7-.84 1.9 0 1.12.61 1.86.62.74 1.99 1.25l2.27.82q1.94.69 2.97 2.08 1.04 1.39 1.04 3.3 0 2.29-1.57 3.61-1.57 1.31-4.3 1.31-1.3 0-2.37-.36-1.07-.35-1.84-1-.76-.65-1.2-1.57-.43-.92-.45-2.04z" stroke="none"/><g fill="none" stroke="#3d85c6"><circle cx="91.5" cy="26" stroke-width="2" r="13"/><ellipse cx="116.27" cy="55.75" rx="19.27" ry="19.75" stroke-width="3"/><ellipse cx="68.61" cy="84.25" rx="25.61" ry="26.25" stroke-width="4"/></g><path d="M178.1 84q-5.1 0-9.15-1.5-4.05-1.5-6.9-4.3-2.85-2.8-4.4-6.8-1.55-4-1.55-8.9v-31q0-4.9 1.55-8.9 1.55-4 4.4-6.8 2.85-2.8 6.9-4.3Q173 10 178.1 10q9.4 0 15.15 5.15Q199 20.3 200.1 29.5h-9q-.6-5.4-4.05-8.45Q183.6 18 178.1 18q-6 0-9.5 3.6-3.5 3.6-3.5 9.9v31q0 6.3 3.45 9.9Q172 76 178.1 76q5.5 0 8.95-3.05 3.45-3.05 4.05-8.45h9q-1.1 9.2-6.85 14.35Q187.5 84 178.1 84zm36.4-19.5h9.5q0 5.2 3.75 8.35Q231.5 76 237.7 76q6.4 0 10-2.95 3.6-2.95 3.6-8.05 0-4.4-2.6-7.75-2.6-3.35-7.1-4.95l-8.5-3q-16.4-5.9-16.4-20.3 0-8.8 5.7-13.9Q228.1 10 238 10q4.8 0 8.75 1.35 3.95 1.35 6.8 3.85 2.85 2.5 4.4 6.05 1.55 3.55 1.65 7.85h-9.5q0-5.1-3.35-8.1-3.35-3-8.85-3-5.6 0-8.9 2.75-3.3 2.75-3.3 7.45 0 4.4 2.4 7.3 2.4 2.9 7.8 4.9l8.9 3.2q7.6 2.7 11.65 8.15 4.05 5.45 4.05 12.95 0 9-6.15 14.15Q248.2 84 237.5 84q-5.1 0-9.3-1.4-4.2-1.4-7.2-3.95-3-2.55-4.7-6.15-1.7-3.6-1.8-8zm60 0h9.5q0 5.2 3.75 8.35Q291.5 76 297.7 76q6.4 0 10-2.95 3.6-2.95 3.6-8.05 0-4.4-2.6-7.75-2.6-3.35-7.1-4.95l-8.5-3q-16.4-5.9-16.4-20.3 0-8.8 5.7-13.9Q288.1 10 298 10q4.8 0 8.75 1.35 3.95 1.35 6.8 3.85 2.85 2.5 4.4 6.05 1.55 3.55 1.65 7.85h-9.5q0-5.1-3.35-8.1-3.35-3-8.85-3-5.6 0-8.9 2.75-3.3 2.75-3.3 7.45 0 4.4 2.4 7.3 2.4 2.9 7.8 4.9l8.9 3.2q7.6 2.7 11.65 8.15 4.05 5.45 4.05 12.95 0 9-6.15 14.15Q308.2 84 297.5 84q-5.1 0-9.3-1.4-4.2-1.4-7.2-3.95-3-2.55-4.7-6.15-1.7-3.6-1.8-8zm-107.54 47.92h-10.84V94.06h10.84v2.09h-8.55v5.76h7.65V104h-7.65v6.33h8.55v2.09zm4.72-18.36h2.29v16.27h8.68v2.09h-10.97V94.06zm25.88 18.36h-10.84V94.06h10.84v2.09h-8.55v5.76h7.65V104h-7.65v6.33h8.55v2.09zm9.84.25q-1.3 0-2.33-.38-1.04-.39-1.76-1.1-.73-.71-1.12-1.73-.4-1.02-.4-2.27v-7.91q0-1.25.4-2.27.39-1.02 1.12-1.73.72-.72 1.76-1.1 1.03-.38 2.33-.38 2.4 0 3.86 1.31 1.47 1.32 1.75 3.66h-2.3q-.15-1.37-1.03-2.15-.88-.78-2.28-.78-1.53 0-2.42.92-.9.92-.9 2.52v7.91q0 1.6.88 2.52.88.92 2.44.92 1.4 0 2.28-.78.88-.78 1.03-2.15h2.3q-.28 2.34-1.75 3.66-1.46 1.31-3.86 1.31zm13.98-16.6h-5.33v-2.01h13v2.01h-5.32v16.35h-2.35V96.07zm11.12 16.35V94.06h5.87q1.24 0 2.26.38 1.02.39 1.75 1.1.73.71 1.12 1.69.4.99.4 2.19 0 1.91-.98 3.25-.98 1.33-2.67 1.84l3.9 7.91h-2.7l-3.57-7.65h-3.08v7.65h-2.3zm2.3-16.32v6.63h3.57q1.45 0 2.3-.91.86-.9.86-2.4 0-1.51-.87-2.41-.87-.91-2.29-.91h-3.57zm18.35 16.57q-1.3 0-2.33-.38-1.04-.39-1.76-1.1-.73-.71-1.12-1.73-.4-1.02-.4-2.27v-7.91q0-1.25.4-2.27.39-1.02 1.12-1.73.72-.72 1.76-1.1 1.03-.38 2.33-.38 1.3 0 2.33.38 1.04.38 1.76 1.1.73.71 1.12 1.73.4 1.02.4 2.27v7.91q0 1.25-.4 2.25-.39 1.01-1.12 1.73-.72.71-1.77 1.1-1.04.4-2.32.4zm-3.31-13.39v7.91q0 1.58.89 2.51.89.93 2.42.93 1.53 0 2.42-.93.89-.93.89-2.51v-7.91q0-1.58-.89-2.51-.89-.93-2.42-.93-1.53 0-2.42.93-.89.93-.89 2.51zm13.13-5.22h2.91l4.87 12.32q.2.46.38 1.05.18.6.31 1.14.17.64.33 1.3h.2q0 0-.02-.27-.03-.27-.08-.72-.05-.46-.09-1.06-.04-.6-.04-1.26v-12.5h2.19v18.36h-2.9l-4.8-12.34q-.2-.59-.4-1.2-.21-.61-.34-1.12-.17-.59-.3-1.18h-.21q.06.41.11.92.02.44.05 1.04.02.59.02 1.33v12.55h-2.19V94.06zm15.55 16.35h4.05V96.07h-4.05v-2.01h10.45v2.01h-4.05v14.34h4.05v2.01h-10.45v-2.01zm20.68 2.26q-1.3 0-2.33-.38-1.04-.39-1.76-1.1-.73-.71-1.12-1.73-.4-1.02-.4-2.27v-7.91q0-1.25.4-2.27.39-1.02 1.12-1.73.72-.72 1.76-1.1 1.03-.38 2.33-.38 2.4 0 3.86 1.31 1.47 1.32 1.75 3.66h-2.29q-.16-1.37-1.04-2.15-.88-.78-2.28-.78-1.53 0-2.42.92-.89.92-.89 2.52v7.91q0 1.6.87 2.52.88.92 2.44.92 1.4 0 2.28-.78.88-.78 1.04-2.15h2.29q-.28 2.34-1.75 3.66-1.46 1.31-3.86 1.31zm9.29-4.97h2.42q0 1.32.96 2.13.95.8 2.54.8 1.63 0 2.55-.75.91-.75.91-2.06 0-1.12-.66-1.97-.66-.86-1.81-1.26l-2.17-.77q-4.18-1.5-4.18-5.18 0-2.24 1.45-3.54 1.46-1.3 3.98-1.3 1.23 0 2.23.34 1.01.35 1.74.99.72.63 1.12 1.54.39.9.42 2h-2.42q0-1.3-.86-2.07-.85-.76-2.25-.76-1.43 0-2.27.7-.84.7-.84 1.9 0 1.12.61 1.86.61.74 1.99 1.25l2.27.82q1.93.69 2.97 2.08 1.03 1.39 1.03 3.3 0 2.29-1.57 3.61-1.57 1.31-4.3 1.31-1.3 0-2.37-.36-1.07-.35-1.83-1-.77-.65-1.2-1.57-.43-.92-.46-2.04z" stroke="none" fill="#434343"/></svg>